<?xml version="1.0" encoding="UTF-8"?>
<svg id="Layer_1" xmlns="http://www.w3.org/2000/svg" viewBox="0 0 862 175">
  <path d="M135.72,54.39c-.32-3.42-1.6-6.4-3.84-9.07s-5.12-4.16-8.54-4.48c-9.82-1.07-20.59-1.6-32.22-1.6s-22.3.53-32.12,1.6c-3.41.32-6.3,1.81-8.54,4.48s-3.52,5.66-3.84,9.07c-.32,4.59-.53,11.84-.53,21.77v42.68h19.74v-20.81s0,0,.01,0v-17.5s0,0-.01,0v-6.83c0-5.02.11-8.75.21-11.31.21-3.09,1.71-4.69,4.48-5.01,5.23-.64,12.16-.96,20.59-.96s15.47.32,20.7.96c2.67.32,4.16,1.92,4.38,5.01.11,2.03.21,4.16.21,6.62,0,2.67-.11,4.91-.21,6.94-.21,3.09-1.71,4.7-4.38,5.02-5.23.64-12.16.96-20.7.96-.66,0-1.31-.02-1.97-.02v17.19c.65,0,1.31.02,1.97.02,11.63,0,22.41-.53,32.22-1.6,3.41-.32,6.3-1.81,8.54-4.48,2.24-2.67,3.52-5.66,3.84-9.07.32-3.84.43-8.86.43-14.94s-.11-10.78-.43-14.62Z"/>
  <g>
    <g>
      <path d="M156.85,118.84V39.88h19.74v78.96h-19.74Z"/>
      <path d="M269.1,118.84v-39.59c0-7.36-.11-13.02-.32-16.86-.21-3.09-1.71-4.69-4.38-5.01-5.23-.64-12.16-.96-20.7-.96s-15.37.32-20.59.96c-2.77.32-4.27,1.92-4.48,5.01-.11,2.56-.21,8.22-.21,16.86v39.59h-19.74v-39.59c0-11.95.21-20.27.53-24.86.32-3.42,1.6-6.4,3.84-9.07s5.12-4.16,8.54-4.48c9.82-1.07,20.49-1.6,32.12-1.6s22.41.53,32.22,1.6c3.41.32,6.3,1.81,8.54,4.48,2.24,2.67,3.52,5.66,3.84,9.07.32,4.59.53,12.91.53,24.86v39.59h-19.74Z"/>
      <path d="M388.39,117.78c-10.24,1.17-21.66,1.71-34.36,1.71s-23.05-.53-32.22-1.49c-3.41-.32-6.3-1.92-8.54-4.59-2.24-2.67-3.52-5.66-3.84-9.07-.32-4.59-.53-12.91-.53-24.97s.21-20.38.53-24.97c.32-3.42,1.6-6.4,3.84-9.07s5.12-4.16,8.54-4.48c9.82-1.07,20.59-1.6,32.22-1.6,13.12,0,24.54.53,34.15,1.6,3.09.21,6.19.53,9.28,1.07l-1.28,17.07c-2.35-.43-5.12-.75-8.32-.96-9.6-1.07-20.91-1.6-33.83-1.6-8.54,0-15.47.32-20.7.96-2.67.32-4.16,1.92-4.38,5.01-.21,3.84-.32,9.5-.32,16.97s.11,13.12.32,16.97c.21,3.09,1.71,4.7,4.38,5.01,5.23.64,12.16.96,20.7.96,5.23,0,11.31-.21,18.03-.53.75-.11,2.03-.21,3.84-.32,1.81-.11,2.77-.11,2.99-.11v-14.08h-35.53v-15.58h55.27v44.82c-2.45.32-5.87.75-10.24,1.28Z"/>
      <path d="M508.11,76.16c-1.17,8-5.12,12.38-11.74,13.12-9.71,1.07-20.59,1.6-32.54,1.6-6.08,0-12.7-.21-19.85-.53-3.41-.21-5.23-.32-5.44-.32,0,3.2.11,5.34.21,6.51.21,3.09,1.71,4.7,4.38,5.02,5.87.75,12.7,1.07,20.7,1.07,13.02,0,24.33-.53,33.93-1.6,2.13-.11,4.8-.53,8.11-1.07l1.28,16.75c-4.05.64-7.04,1.07-9.07,1.17-9.6,1.07-21.02,1.6-34.25,1.6-11.63,0-22.41-.53-32.22-1.6-3.41-.32-6.3-1.81-8.54-4.48-2.24-2.67-3.52-5.66-3.84-9.07-.32-4.59-.53-12.91-.53-24.97,0-11.42.21-19.74.64-24.97.32-3.42,1.6-6.51,3.84-9.18,2.24-2.67,5.12-4.16,8.54-4.48,9.18-.96,19.85-1.49,32.12-1.49s22.94.53,32.54,1.6c6.62.75,10.56,5.23,11.74,13.66.43,2.67.64,6.3.64,10.88s-.21,8.11-.64,10.78ZM488.91,60.48c-.32-2.35-1.92-3.63-4.91-3.84-4.27-.32-10.99-.53-20.17-.53-8.54,0-15.47.32-20.7.96-2.67.32-4.16,2.03-4.38,5.12-.11,1.6-.21,4.27-.21,7.79v4.05c.32,0,2.13.11,5.55.32,7.15.32,13.66.53,19.74.53,9.18,0,15.9-.21,20.17-.53,2.99-.21,4.59-1.49,4.91-3.95.11-.96.21-2.67.21-5.12,0-2.24-.11-3.84-.21-4.8Z"/>
      <path d="M619.19,104.33c-.32,3.41-1.6,6.4-3.84,9.07-2.24,2.67-5.12,4.27-8.54,4.59-9.18.96-20.06,1.49-32.54,1.49s-23.8-.53-32.97-1.49c-3.41-.32-6.3-1.92-8.54-4.59-2.24-2.67-3.52-5.66-3.84-9.07-.32-4.59-.53-12.91-.53-24.97v-37.35c5.02-.53,9.71-1.07,13.98-1.49,9.18-.85,19.95-1.28,32.22-1.28,11.63,0,22.41.53,32.23,1.6,3.41.32,6.3,1.81,8.54,4.48s3.52,5.66,3.84,9.07c.32,4.59.53,12.91.53,24.97s-.21,20.38-.53,24.97ZM599.66,62.4c-.21-3.09-1.71-4.69-4.48-5.01-5.23-.64-12.16-.96-20.59-.96-8.86,0-15.69.21-20.49.75l-5.98.64v21.55c0,8.75.11,14.41.21,16.97.21,3.09,1.71,4.7,4.38,5.01,5.23.64,12.38.96,21.34.96s15.9-.32,21.13-.96c2.77-.32,4.27-1.92,4.48-5.01.21-3.84.32-9.5.32-16.97s-.11-13.12-.32-16.97Z"/>
    </g>
    <g>
      <path d="M648.36,117.66c0,.63-.24.95-.79.95-3.4.16-5.61.24-6.64.24l-6.8-.24c-.55,0-.79-.32-.79-.87-.08-3.56-.08-5.93-.08-6.96l.08-7.03c0-.63.24-.95.79-.95,3.48-.08,5.69-.16,6.72-.16l6.72.16c.55,0,.79.32.79.87.08,3.64.08,6.01.08,7.03l-.08,6.96Z"/>
      <path d="M719.33,118.05c-7.59.87-16.05,1.26-25.45,1.26s-17.07-.4-23.87-1.11c-2.53-.24-4.66-1.42-6.32-3.4-1.66-1.98-2.61-4.19-2.85-6.72-.24-3.4-.4-9.56-.4-18.5s.16-15.1.4-18.5c.24-2.53,1.19-4.74,2.85-6.72,1.66-1.98,3.79-3.08,6.32-3.32,7.27-.79,15.25-1.19,23.87-1.19,9.72,0,18.18.39,25.29,1.19,2.29.16,4.58.39,6.88.79l-.95,12.65c-1.74-.32-3.79-.55-6.17-.71-7.11-.79-15.49-1.19-25.06-1.19-6.32,0-11.46.24-15.33.71-1.98.24-3.08,1.42-3.24,3.71-.16,2.85-.24,7.04-.24,12.57s.08,9.72.24,12.57c.16,2.29,1.26,3.48,3.24,3.71,3.87.47,9.01.71,15.33.71,3.87,0,8.38-.16,13.36-.4.55-.08,1.5-.16,2.85-.24s2.06-.08,2.21-.08v-10.43h-26.32v-11.54h40.94v33.2c-1.82.24-4.35.55-7.59.95Z"/>
      <path d="M800.66,118.05c-7.59.87-16.05,1.26-25.45,1.26s-17.07-.4-23.87-1.11c-2.53-.24-4.66-1.42-6.32-3.4-1.66-1.98-2.61-4.19-2.85-6.72-.24-3.4-.4-9.56-.4-18.5s.16-15.1.4-18.5c.24-2.53,1.19-4.74,2.85-6.72,1.66-1.98,3.79-3.08,6.32-3.32,7.27-.79,15.25-1.19,23.87-1.19,9.72,0,18.18.39,25.29,1.19,2.29.16,4.58.39,6.88.79l-.95,12.65c-1.74-.32-3.79-.55-6.17-.71-7.11-.79-15.49-1.19-25.06-1.19-6.32,0-11.46.24-15.33.71-1.98.24-3.08,1.42-3.24,3.71-.16,2.85-.24,7.04-.24,12.57s.08,9.72.24,12.57c.16,2.29,1.26,3.48,3.24,3.71,3.87.47,9.01.71,15.33.71,3.87,0,8.38-.16,13.36-.4.55-.08,1.5-.16,2.85-.24s2.06-.08,2.21-.08v-10.43h-26.32v-11.54h40.94v33.2c-1.82.24-4.35.55-7.59.95Z"/>
    </g>
  </g>
</svg>